<?xml version="1.0" encoding="UTF-8"?>
<svg version="1.1" xmlns="http://www.w3.org/2000/svg" width="1121" height="310">
<path d="M0 0 C0.74217773 0.1453418 1.48435547 0.29068359 2.24902344 0.44042969 C22.19611198 4.35484072 39.6920852 11.83899703 56 24 C56.98355469 24.72960937 57.96710938 25.45921875 58.98046875 26.2109375 C66.11766932 31.78781918 72.11192256 38.15861479 78 45 C78.66773438 45.75796875 79.33546875 46.5159375 80.0234375 47.296875 C82.60805823 50.42754237 83.88899851 52.48199303 84.75 56.5 C83.38664267 62.8623342 78.92061098 67.88434817 73.82421875 71.84375 C60.93522318 80.01322043 45.98836398 82.27712862 31.125 79 C26.03454086 77.40165643 22.65394319 74.50355237 18.65625 71.0625 C6.61164779 61.71022063 -8.50887929 59.42491412 -23.3125 59.5 C-25.22736206 59.50640503 -25.22736206 59.50640503 -27.1809082 59.51293945 C-36.75757867 59.68583883 -44.3555203 60.84973256 -53 65 C-53.91007812 65.38414063 -54.82015625 65.76828125 -55.7578125 66.1640625 C-62.29620063 69.1033379 -67.62786637 73.3016594 -73 78 C-73.61617188 78.52078125 -74.23234375 79.0415625 -74.8671875 79.578125 C-84.63877151 88.49413253 -90.31407058 100.52707813 -94 113 C-94.26719849 113.90202148 -94.26719849 113.90202148 -94.53979492 114.82226562 C-97.37042959 128.21709917 -96.41402394 145.40650953 -91 158 C-90.56429687 159.03769531 -90.12859375 160.07539063 -89.6796875 161.14453125 C-86.40516652 168.25722026 -82.19811273 174.17061741 -77 180 C-76.05833984 181.06541016 -76.05833984 181.06541016 -75.09765625 182.15234375 C-62.12201664 195.97710497 -43.99135385 202.56817551 -25.3515625 203.1796875 C-9.87177599 203.49941034 6.10028847 201.90240131 18.671875 191.8671875 C20.10475735 190.49019773 21.53707963 189.11262483 22.96875 187.734375 C31.03023316 180.85110861 44.06383562 182.28794088 54 183 C66.01071697 184.46988929 74.90550102 190.56656654 82.5390625 199.8203125 C84 202 84 202 85 205.375 C79.90481915 223.84503059 58.00677058 239.71169689 42.04638672 248.86572266 C10.67600462 266.25379176 -27.54236663 269.96235098 -62.09667969 260.83447266 C-91.0843994 252.50281894 -116.42458594 235.82801242 -135 212 C-135.60585937 211.27167969 -136.21171875 210.54335937 -136.8359375 209.79296875 C-148.28477728 195.83160078 -155.59274805 178.89343562 -160.375 161.625 C-160.75132568 160.27051758 -160.75132568 160.27051758 -161.13525391 158.88867188 C-169.39755708 127.49767753 -162.91412142 93.8233646 -147 66 C-144.49635095 61.86946616 -141.83983948 57.90618236 -139 54 C-138.40960938 53.1853125 -137.81921875 52.370625 -137.2109375 51.53125 C-117.63701873 25.87692242 -89.02300636 7.44566818 -57.28808594 1.43798828 C-55.08386208 1.01605298 -52.89063872 0.55553423 -50.6953125 0.08984375 C-34.22785936 -3.21897587 -16.4365146 -3.62289765 0 0 Z " fill="#3C4C73" transform="translate(168,17)"/>
<path d="M0 0 C3.35344808 2.43887133 6.27124885 5.06362777 9.0625 8.125 C10.69629316 5.14550148 10.69629316 5.14550148 11.0625 -2.875 C20.6325 -2.875 30.2025 -2.875 40.0625 -2.875 C40.13043999 11.63384547 40.18541086 26.14258422 40.21793652 40.65155315 C40.23335042 47.38958656 40.25433394 54.12751349 40.28881836 60.86547852 C40.32155895 67.37534011 40.339384 73.88509145 40.34713173 80.39502907 C40.3526489 82.87116034 40.36342222 85.347286 40.37969017 87.82336998 C40.5983049 122.49585686 40.5983049 122.49585686 27.9921875 136.41015625 C14.30140649 149.53662192 -4.86499153 151.5901657 -22.97265625 151.3359375 C-37.04931704 150.89476531 -50.31916131 147.70165247 -60.875 137.875 C-67.8264383 130.35583987 -69.7999816 124.36266557 -70.9375 114.125 C-61.0375 114.125 -51.1375 114.125 -40.9375 114.125 C-39.9475 116.765 -38.9575 119.405 -37.9375 122.125 C-33.84376051 126.31663327 -28.68719473 127.84222813 -22.9375 128.125 C-21.9784375 128.21007812 -21.019375 128.29515625 -20.03125 128.3828125 C-11.39024431 128.85601043 -5.08296035 127.05796394 2.0625 122.125 C8.1898863 115.26816296 8.35105217 107.42496005 8.1875 98.6875 C8.17847656 97.76517578 8.16945313 96.84285156 8.16015625 95.89257812 C8.1367766 93.63644191 8.10400916 91.38086316 8.0625 89.125 C7.54042969 89.65609375 7.01835938 90.1871875 6.48046875 90.734375 C-4.38768669 101.16475885 -16.60824216 102.642155 -31.06640625 102.390625 C-43.08667634 101.91623245 -52.20329609 97.2969161 -60.9375 89.125 C-74.45694841 73.94604483 -76.0232134 56.61614048 -74.9375 37.125 C-73.59719528 24.96478082 -68.15238276 14.21834969 -59.16015625 5.8671875 C-55.05451743 2.64905936 -50.65154043 0.32575368 -45.9375 -1.875 C-45.10734375 -2.29007813 -44.2771875 -2.70515625 -43.421875 -3.1328125 C-30.39588999 -8.84666482 -11.96046841 -7.6076422 0 0 Z " fill="#3D4D74" transform="translate(732.9375,151.875)"/>
<path d="M0 0 C10.23 0 20.46 0 31 0 C31.33 16.83 31.66 33.66 32 51 C34.31 49.02 36.62 47.04 39 45 C41.29296875 43.57421875 41.29296875 43.57421875 43.1875 42.6875 C43.82042969 42.38199219 44.45335937 42.07648438 45.10546875 41.76171875 C50.6582696 39.52914934 56.21981271 39.7435619 62.125 39.6875 C63.12015625 39.65849609 64.1153125 39.62949219 65.140625 39.59960938 C72.24671014 39.5393097 77.63398363 40.87061958 84 44 C84.63268799 44.30881104 85.26537598 44.61762207 85.91723633 44.93579102 C95.58884929 50.0670412 102.13458012 57.27526839 105.421875 67.69140625 C106.75665348 73.0215014 107.12276732 78.07620997 107.11352539 83.56591797 C107.11367142 84.29831192 107.11381744 85.03070587 107.1139679 85.78529358 C107.1132755 88.18762249 107.10551482 90.58987226 107.09765625 92.9921875 C107.09578968 94.66513018 107.0943669 96.33807342 107.09336853 98.01101685 C107.08956219 102.40040615 107.07974808 106.78976203 107.06866455 111.17913818 C107.05840985 115.66369169 107.05386223 120.14825063 107.04882812 124.6328125 C107.03812403 133.421892 107.02054258 142.21093798 107 151 C96.77 151 86.54 151 76 151 C75.9906543 148.83050781 75.98130859 146.66101563 75.97167969 144.42578125 C75.93782877 137.23716426 75.88223498 130.04883189 75.81609726 122.86044312 C75.77668095 118.50444081 75.74446398 114.14863889 75.72900391 109.79248047 C75.71379853 105.58415607 75.67928498 101.37638276 75.63169098 97.16830444 C75.61691699 95.56729945 75.60896128 93.96621576 75.60811615 92.36514282 C75.71827964 80.5836182 75.71827964 80.5836182 71 70 C64.30623307 64.47036645 57.45302069 63.19677179 49 64 C43.30366863 65.0880633 39.25677104 67.07217304 35.19140625 71.20703125 C32.07886312 75.89115354 31.73892745 80.80189253 31.68115234 86.29052734 C31.67110672 86.99366058 31.6610611 87.69679382 31.65071106 88.42123413 C31.62002507 90.72612757 31.60288503 93.03090564 31.5859375 95.3359375 C31.56721407 96.94162987 31.54763979 98.54731252 31.5272522 100.15298462 C31.47604899 104.3647487 31.43636031 108.57654464 31.39910889 112.78845215 C31.35899494 117.09212041 31.3079364 121.39565749 31.2578125 125.69921875 C31.16119309 134.13272926 31.07775622 142.56629446 31 151 C20.77 151 10.54 151 0 151 C0 101.17 0 51.34 0 0 Z " fill="#3E4E74" transform="translate(794,106)"/>
<path d="M0 0 C0 61.38 0 122.76 0 186 C-9.05103436 189.87901473 -16.19829775 190.22471107 -25.52734375 187.03125 C-37.42555778 182.06896169 -44.94142151 174.45606943 -50.08984375 162.67578125 C-56.09529827 145.02026044 -54.51623374 122.60543429 -55.125 104.1875 C-55.18516989 102.39225828 -55.18516989 102.39225828 -55.24655533 100.56074905 C-56.79513233 48.19597003 -56.79513233 48.19597003 -37.96051025 27.50166321 C-34.70749121 24.11011896 -31.26060512 20.98681662 -27.6875 17.9375 C-27.10773659 17.44104855 -26.52797318 16.94459709 -25.93064117 16.43310165 C-6.5007867 0 -6.5007867 0 0 0 Z " fill="#394970" transform="translate(340,84)"/>
<path d="M0 0 C16.6838106 -0.67753261 31.15794634 1.53195466 44.00537109 13.16943359 C54.54399709 24.16027675 55.4399028 35.02052067 55.21240234 49.45849609 C55.20305864 51.21396368 55.19594991 52.96944444 55.19096375 54.72492981 C55.1720162 59.31024166 55.12302379 63.89474175 55.06744385 68.47973633 C55.01598458 73.17241439 54.99339315 77.86522563 54.96826172 82.55810547 C54.91489054 91.74015727 54.82705772 100.92139731 54.72412109 110.10302734 C44.82412109 110.10302734 34.92412109 110.10302734 24.72412109 110.10302734 C24.71477539 107.99412109 24.70542969 105.88521484 24.69580078 103.71240234 C24.6619449 96.72335026 24.60634843 89.73459077 24.54021835 82.74577332 C24.50080748 78.51083895 24.4685879 74.27611051 24.453125 70.04101562 C24.43791596 65.94939322 24.40339616 61.85833721 24.35581207 57.76696777 C24.34104181 56.21062154 24.33308259 54.65419441 24.33223724 53.09777832 C24.37296176 41.50297235 24.37296176 41.50297235 19.72412109 31.10302734 C14.14656585 25.66848633 8.76278488 24.74101807 1.28662109 24.72802734 C0.54863281 24.70353516 -0.18935547 24.67904297 -0.94970703 24.65380859 C-6.19946416 24.62580989 -9.08510718 25.69763263 -13.27587891 29.10302734 C-20.94039079 36.76753923 -19.6120941 47.91243758 -19.68994141 57.97802734 C-19.70867685 59.5136008 -19.728252 61.04916422 -19.74862671 62.5847168 C-19.79970316 66.6024582 -19.83945897 70.62023289 -19.87677002 74.63812256 C-19.92404628 79.47167108 -19.98553803 84.30505761 -20.0446167 89.13847351 C-20.13253006 96.45992517 -20.20250767 103.78135051 -20.27587891 111.10302734 C-30.50587891 111.10302734 -40.73587891 111.10302734 -51.27587891 111.10302734 C-51.3666979 101.6791596 -51.43989124 92.25558844 -51.48312759 82.83137989 C-51.5038919 78.45406993 -51.53200203 74.07707811 -51.57763672 69.69995117 C-51.62149718 65.46590288 -51.64509961 61.23215817 -51.65538788 56.99790001 C-51.66270789 55.39255693 -51.6769994 53.78722812 -51.69879913 52.18201637 C-51.90098694 36.65900548 -49.56700122 24.64526107 -38.39697266 13.17333984 C-27.28143663 2.70901704 -14.67623 0.66438201 0 0 Z " fill="#3D4D74" transform="translate(419.27587890625,145.89697265625)"/>
<path d="M0 0 C1.72669922 -0.04350586 1.72669922 -0.04350586 3.48828125 -0.08789062 C17.45913043 -0.19027002 30.56813047 4.6042058 40.75 14.3125 C45.53520913 20.42693389 46.75 25.58912992 46.75 33.3125 C37.18 33.3125 27.61 33.3125 17.75 33.3125 C16.76 31.3325 15.77 29.3525 14.75 27.3125 C9.3447753 22.43036156 4.50585169 21.94829484 -2.5 21.9375 C-3.32113281 21.91300781 -4.14226562 21.88851562 -4.98828125 21.86328125 C-10.82744874 21.83551976 -15.41365766 22.91513428 -20.25 26.3125 C-21.81700442 29.44650885 -22.10164561 32.94405095 -21.25 36.3125 C-17.53281541 40.21518708 -13.56813192 41.27143028 -8.4375 42.25 C-7.28507812 42.48976563 -7.28507812 42.48976563 -6.109375 42.734375 C-3.49248065 43.27594397 -0.87196054 43.79603229 1.75 44.3125 C4.86789152 44.92903222 7.98499618 45.54869543 11.1003418 46.17797852 C13.14805454 46.5905051 15.19764542 46.99385241 17.24926758 47.38647461 C30.33663354 50.00790468 42.01399887 54.90559387 49.75 66.3125 C53.47514001 73.99162821 52.48994843 83.09081168 49.796875 90.9921875 C45.98580572 99.43910971 39.76575769 104.62744678 31.4375 108.4375 C30.36886719 108.93507813 29.30023437 109.43265625 28.19921875 109.9453125 C19.76680929 113.28771716 12.12164457 113.6269627 3.13378906 113.57324219 C1.01858374 113.56259356 -1.0957592 113.5731421 -3.2109375 113.5859375 C-18.76426788 113.60541176 -32.51675871 111.9781269 -44.3125 100.8125 C-45.32611846 99.67563761 -46.30874869 98.50996585 -47.25 97.3125 C-47.66894531 96.78140625 -48.08789062 96.2503125 -48.51953125 95.703125 C-52.23424802 90.19011777 -51.58324314 86.64682546 -52.25 79.3125 C-42.68 79.3125 -33.11 79.3125 -23.25 79.3125 C-22.26 82.2825 -21.27 85.2525 -20.25 88.3125 C-18.04174051 89.91269461 -18.04174051 89.91269461 -15.25 90.3125 C-14.20972656 90.64636719 -13.16945313 90.98023438 -12.09765625 91.32421875 C-7.91847371 92.39765345 -4.22691934 92.6967183 0.0625 92.6875 C1.17637085 92.68617065 1.17637085 92.68617065 2.31274414 92.68481445 C8.26345134 92.55715581 13.67349914 91.63388677 18.75 88.3125 C21.19747077 84.64129385 21.57048063 81.57899927 20.75 77.3125 C14.44611128 70.02362867 3.10730129 69.36963818 -5.8125 67.9375 C-34.18966703 63.0923941 -34.18966703 63.0923941 -43.25 54.3125 C-43.81203125 53.77753906 -44.3740625 53.24257812 -44.953125 52.69140625 C-49.85239092 47.54242046 -52.134108 42.24799931 -52.34375 35.12890625 C-52.03082867 28.36198244 -51.01404354 22.97894822 -47.25 17.3125 C-46.71375 16.466875 -46.1775 15.62125 -45.625 14.75 C-32.93537797 1.72644055 -17.26052965 0.14304306 0 0 Z " fill="#3E4E74" transform="translate(1058.25,145.6875)"/>
<path d="M0 0 C9.9 0 19.8 0 30 0 C30 10.23 30 20.46 30 31 C39.24 31 48.48 31 58 31 C58 38.59 58 46.18 58 54 C48.76 54 39.52 54 30 54 C30.05101642 61.88458838 30.11391021 69.76719137 30.20751953 77.65112305 C30.23795509 80.33310425 30.25863532 83.01489752 30.27099609 85.69702148 C30.29240272 89.55235559 30.33904508 93.40668486 30.390625 97.26171875 C30.39185364 98.46084396 30.39308228 99.65996918 30.39434814 100.89543152 C30.4464396 107.37517685 30.4464396 107.37517685 32.91308594 113.23364258 C35.99720911 115.84403461 37.82534104 116.14926137 41.7890625 116.31640625 C42.63678223 116.35451416 43.48450195 116.39262207 44.35791016 116.43188477 C45.4360498 116.47498779 46.51418945 116.51809082 47.625 116.5625 C51.04875 116.706875 54.4725 116.85125 58 117 C58 124.59 58 132.18 58 140 C18.92564644 140.73162798 18.92564644 140.73162798 9.609375 132.58984375 C9.07828125 132.06519531 8.5471875 131.54054687 8 131 C7.071875 130.0925 6.14375 129.185 5.1875 128.25 C-0.51518492 119.77743954 -0.41263715 110.59305698 -0.29296875 100.6796875 C-0.28735977 99.32634964 -0.28309584 97.9730056 -0.28010559 96.61965942 C-0.26875896 93.09161982 -0.23938253 89.56396241 -0.20599365 86.03607178 C-0.17507037 82.42253791 -0.16155316 78.8089411 -0.14648438 75.1953125 C-0.11450054 68.13003883 -0.0618187 61.0650849 0 54 C-6.93 54 -13.86 54 -21 54 C-21 46.41 -21 38.82 -21 31 C-14.07 31 -7.14 31 0 31 C0 20.77 0 10.54 0 0 Z " fill="#3D4D73" transform="translate(935,117)"/>
<path d="M0 0 C9.9 0 19.8 0 30 0 C30 35.31 30 70.62 30 107 C20.1 107 10.2 107 0 107 C0 71.69 0 36.38 0 0 Z " fill="#3A4A71" transform="translate(610,149)"/>
<path d="M0 0 C3.07599114 3.07599114 2.38554972 6.74807603 2.44140625 10.8828125 C2.45517807 11.77104706 2.46894989 12.65928162 2.48313904 13.57443237 C2.50644471 15.4590632 2.52369294 17.34377706 2.53540039 19.22851562 C2.56221009 22.09401406 2.6370524 24.95575217 2.71289062 27.8203125 C2.94551243 43.17748611 2.94551243 43.17748611 -0.7265625 47.48828125 C-2.12781313 48.68656274 -3.55630326 49.8532125 -5 51 C-6.51445277 52.48432551 -7.98396165 54.00691791 -9.45613098 55.53314209 C-11.67428897 57.82706388 -13.93658474 60.07524868 -16.19702148 62.32739258 C-17.933936 64.058947 -19.66543889 65.79578359 -21.39648438 67.53320312 C-26.60532282 72.74493464 -31.82354021 77.8743426 -37.43286133 82.65991211 C-39.32739918 84.2799648 -41.11684295 85.98343072 -42.875 87.75 C-43.42929687 88.30171875 -43.98359375 88.8534375 -44.5546875 89.421875 C-46.20802234 91.14639825 -46.20802234 91.14639825 -48 94 C-48.66 94 -49.32 94 -50 94 C-50.07647933 86.22622019 -50.12877939 78.45253853 -50.16479492 70.6784668 C-50.17981981 68.03747939 -50.2002455 65.39651668 -50.22631836 62.75561523 C-50.26297878 58.94508749 -50.27979006 55.13489156 -50.29296875 51.32421875 C-50.30845261 50.15606125 -50.32393646 48.98790375 -50.33988953 47.78434753 C-50.34266565 34.05850128 -46.73874399 22.85215774 -37.25 12.75 C-26.76178748 2.87991408 -14.3900626 -1.61051573 0 0 Z " fill="#CF384D" transform="translate(338,17)"/>
<path d="M0 0 C5.80993073 3.9499529 9.70255208 8.30918675 12 15 C12.5956378 18.76555872 12.6674757 22.44249044 12.625 26.25 C12.61243164 27.77645142 12.61243164 27.77645142 12.59960938 29.33374023 C12.32517504 38.4608715 10.72022167 45.35338802 3.99609375 51.97265625 C-4.30156819 58.63282893 -12.79702682 58.79902802 -23 58 C-29.59200854 56.42191311 -34.39130516 51.59119302 -38 46 C-40.85180665 40.24242477 -41.48788637 34.99153455 -41.375 28.625 C-41.36339844 27.78791504 -41.35179687 26.95083008 -41.33984375 26.08837891 C-41.07866425 16.21540985 -39.40387459 9.20883329 -32.37109375 1.91796875 C-22.5822965 -6.00015225 -10.65710603 -5.81764726 0 0 Z " fill="#FCFCFC" transform="translate(730,173)"/>
<path d="M0 0 C6.27467799 0.10695474 11.40803735 2.47053735 15.8125 6.875 C17.85883445 11.76840846 18.00572782 16.08473335 17.25 21.3125 C15.30196765 25.59817116 12.74649107 28.42562611 8.51171875 30.62109375 C2.81934503 32.36124945 -4.10760076 32.62991395 -9.4765625 29.953125 C-13.84269988 26.80230421 -16.8053965 23.7298871 -17.6875 18.375 C-17.9718153 13.55998279 -17.5275735 9.34140137 -14.23046875 5.578125 C-9.52730635 1.2745777 -6.2793053 0.52327544 0 0 Z " fill="#3F4E74" transform="translate(624.75,97.6875)"/>
<path d="M0 0 C0.33 0.99 0.66 1.98 1 3 C-1.11905463 5.17277714 -3.24472878 7.33826908 -5.375 9.5 C-5.97828125 10.12003906 -6.5815625 10.74007812 -7.203125 11.37890625 C-7.78320312 11.96542969 -8.36328125 12.55195313 -8.9609375 13.15625 C-9.49509277 13.70087891 -10.02924805 14.24550781 -10.57958984 14.80664062 C-12 16 -12 16 -14 16 C-12.34136495 11.67495164 -9.128959 8.90581175 -5.875 5.75 C-5.31167969 5.19570312 -4.74835938 4.64140625 -4.16796875 4.0703125 C-2.78313972 2.70895515 -1.39216796 1.35385141 0 0 Z " fill="#4F5F82" transform="translate(302,119)"/>
<path d="M0 0 C0.66 0.33 1.32 0.66 2 1 C0.93401689 4.19794932 0.32281202 4.82463478 -2.1875 6.875 C-2.81140625 7.390625 -3.4353125 7.90625 -4.078125 8.4375 C-5.02945312 9.2109375 -5.02945312 9.2109375 -6 10 C-7.14672506 10.95726613 -8.29264286 11.91550068 -9.4375 12.875 C-10.283125 13.57625 -11.12875 14.2775 -12 15 C-12.66 14.67 -13.32 14.34 -14 14 C-9.38 9.38 -4.76 4.76 0 0 Z " fill="#49597D" transform="translate(337,84)"/>
<path d="M0 0 C0 3 0 3 -1.75 5.04296875 C-2.4925 5.75066406 -3.235 6.45835938 -4 7.1875 C-4.7425 7.90292969 -5.485 8.61835937 -6.25 9.35546875 C-6.8275 9.89816406 -7.405 10.44085938 -8 11 C-8.99 10.67 -9.98 10.34 -11 10 C-9.73232923 8.70522938 -8.46073776 7.41429661 -7.1875 6.125 C-6.47980469 5.40570312 -5.77210938 4.68640625 -5.04296875 3.9453125 C-3 2 -3 2 0 0 Z " fill="#CF4457" transform="translate(308,24)"/>
<path d="M0 0 C0 3 0 3 -2.5 5.6875 C-3.325 6.450625 -4.15 7.21375 -5 8 C-5.99 7.67 -6.98 7.34 -8 7 C-5.36 4.69 -2.72 2.38 0 0 Z " fill="#45577A" transform="translate(678,155)"/>
<path d="M0 0 C0.33 0 0.66 0 1 0 C0.67 2.31 0.34 4.62 0 7 C-0.66 7 -1.32 7 -2 7 C-2.33 7.99 -2.66 8.98 -3 10 C-2.49287967 6.28111761 -1.88391785 3.26545761 0 0 Z " fill="#D45C6B" transform="translate(293,40)"/>
</svg>
